<svg xmlns="http://www.w3.org/2000/svg" xmlns:xlink="http://www.w3.org/1999/xlink" width="16" height="16" viewBox="0 0 16 16">
    <defs>
        <path id="userLogout" d="M9.68 3.755C9.68 2.201 8.467.947 6.98.947S4.278 2.2 4.278 3.755c0 1.555 1.213 2.809 2.7 2.809 1.489 0 2.702-1.254 2.702-2.809zM7 8.365a.477.477 0 0 1 .13-.018c2.733 0 4.629.954 5.795 2.548.702.96 1.003 1.918 1.072 2.582a.475.475 0 1 1-.945.098 3.636 3.636 0 0 0-.15-.643 5.075 5.075 0 0 0-.745-1.48c-.987-1.347-2.596-2.158-5.028-2.158A.477.477 0 0 1 7 9.276a.477.477 0 0 1-.13.018c-2.43 0-4.04.81-5.027 2.158-.344.47-.587.976-.745 1.48a3.636 3.636 0 0 0-.15.644.475.475 0 0 1-.945-.099c.069-.664.37-1.622 1.072-2.582C2.241 9.3 4.137 8.347 6.871 8.347c.045 0 .088.006.129.018zm3.63-4.61c0 2.07-1.63 3.756-3.651 3.756S3.327 5.825 3.327 3.755 4.958 0 6.979 0c2.02 0 3.652 1.685 3.652 3.755z"/>
    </defs>
    <g fill="none" fill-rule="evenodd" transform="translate(1 1)">
        <mask id="b" fill="#fff">
            <use xlink:href="#userLogout"/>
        </mask>
        <use fill="#555" fill-rule="nonzero" xlink:href="#userLogout"/>
    </g>
</svg>
